# xmcd
#
# Track frame offsets: 
#        150
#        18690
#        32119
#        48585
#        65633
#        88978
#        109008
#        121596
#        135424
#        151583
#        166688
#
# Disc length: 2434 seconds
#
# Revision: 1
# Processed by: cddbd v1.5.2PL0 Copyright (c) Steve Scherf et al.
# Submitted via: ExactAudioCopy v0.95b4
#
DISCID=8609800b
DTITLE=Nueva Etica - La Vengaza de los Justos 
DYEAR=2000
DGENRE=Hardcore
TTITLE0=El Oponente
TTITLE1=La amenaza
TTITLE2=Renunciar y Cofrontar
TTITLE3=La Marca del Honor
TTITLE4=La Vengaza de los Justos
TTITLE5=Una Vida Mejor
TTITLE6=Hasta La Muerte
TTITLE7=Momento de la Verdad
TTITLE8=Fiel
TTITLE9=Miserable Existencia
TTITLE10=Nueva Etica
EXTD=
EXTT0=
EXTT1=
EXTT2=
EXTT3=
EXTT4=
EXTT5=
EXTT6=
EXTT7=
EXTT8=
EXTT9=
EXTT10=
PLAYORDER=
